:SAMPLES-PER-SECOND 30
:FULLY-SPECIFIED
:DEGREES
652
root  1.18791 38.8274 28.6489 152.901 76.375 162.319
RightUpLeg  -11.0584 -2.30271 -11.7189
RightLeg  54.6155 1.67844 2.17173
RightFoot  -0.396454 -0.903073 9.37648
RightToes  5.82063e-011 0 -3.6325e-017
Spine  10.723 -0.19442 -2.19659
Spine1  7.07571 0.181194 -6.39092
HEad  -25.1996 22.6778 -1.38041
LeftShoulder1  0.386452 2.4167 -29.4326
LeftArm  9.46851 7.57717 -43.0903
LeftForeArm  15.3234 -25.1194 -4.47699
LeftHand  -0.0726409 0.800484 1.75367
RightShoulder  -0.235224 -4.21969 25.4178
RightArm  15.2571 -4.53378 49.9868
RightForeArm  11.6603 11.9963 6.69344
RightHand  -0.0876591 1.82179 -1.52206
LeftUpLeg  -1.08235 3.73574 -10.2911
LeftLeg  19.9754 0.548467 0.174248
LeftFoot  -5.96527 -0.570043 12.8516
LeftToes  1.81573e-012 2.54609e-010 -3.45981e-011
653
root  2.06369 38.9498 28.7182 158.239 73.3747 167.38
RightUpLeg  -11.3918 -0.604563 -11.7922
RightLeg  44.8939 0.964367 0.728702
RightFoot  -1.32384 -0.834264 9.41157
RightToes  5.82063e-011 0 -3.6325e-017
Spine  10.6352 -0.249588 -1.7852
Spine1  7.03161 0.172079 -5.89967
HEad  -24.5894 28.5391 -1.21346
LeftShoulder1  0.335071 2.56305 -29.4769
LeftArm  8.65525 6.40067 -43.3869
LeftForeArm  17.4544 -28.0595 -5.11362
LeftHand  -0.0849626 0.288228 1.91729
RightShoulder  -0.238723 -4.23616 25.1325
RightArm  14.4962 -4.27863 49.6515
RightForeArm  13.5484 12.0877 6.38685
RightHand  -0.0210877 0.906891 -0.465074
LeftUpLeg  0.480898 3.34339 -9.5361
LeftLeg  19.2801 -2.29859 -0.542991
LeftFoot  -6.57056 -0.50967 13.1309
LeftToes  1.81573e-012 2.54609e-010 -3.45981e-011
654
root  2.9338 38.9977 28.8158 160.717 69.843 169.303
RightUpLeg  -10.8439 2.37633 -12.8148
RightLeg  33.6956 1.23182 0.598287
RightFoot  -1.43634 -0.966657 11.0077
RightToes  5.82063e-011 0 -3.6325e-017
Spine  10.1182 -0.196794 -2.01775
Spine1  7.21325 0.248189 -5.51607
HEad  -23.9944 32.4135 -0.989597
LeftShoulder1  0.380172 2.42417 -29.2653
LeftArm  7.81248 5.69374 -43.6447
LeftForeArm  18.8968 -30.9722 -5.71801
LeftHand  -0.103565 0.133236 2.29456
RightShoulder  -0.176716 -4.04123 24.9109
RightArm  14.0153 -4.02242 49.261
RightForeArm  13.4889 11.334 6.5342
RightHand  -0.0950358 1.50825 -1.75203
LeftUpLeg  1.59945 3.07198 -9.20717
LeftLeg  18.8801 -5.45782 -1.37875
LeftFoot  -7.23089 -0.441809 13.4551
LeftToes  1.81573e-012 2.54609e-010 -3.45981e-011
655
root  3.7997 39.0242 28.9194 162.304 66.1261 170.275
RightUpLeg  -9.89768 7.37091 -14.2768
RightLeg  22.676 3.11882 1.34495
RightFoot  -0.816821 -1.03223 11.1262
RightToes  5.82063e-011 0 -3.6325e-017
Spine  9.84433 -0.29114 -1.15851
Spine1  7.21823 0.657046 -6.70531
HEad  -26.4892 38.8608 -5.6381
LeftShoulder1  0.512972 1.99631 -27.8808
LeftArm  6.52107 5.41662 -44.6476
LeftForeArm  20.1611 -33.2359 -6.2107
LeftHand  -0.119976 -0.287871 2.50746
RightShoulder  -0.274521 -4.33461 25.707
RightArm  14.5533 -3.25718 48.4025
RightForeArm  13.374 10.6128 6.87118
RightHand  -0.0551573 1.06156 -1.09667
LeftUpLeg  2.57405 2.3566 -9.04728
LeftLeg  18.6268 -8.43223 -2.02165
LeftFoot  -7.95149 -0.351114 13.4292
LeftToes  1.81573e-012 2.54609e-010 -3.45981e-011
656
root  4.67842 38.9907 29.0238 163.212 62.5093 170.664
RightUpLeg  -8.6639 11.3827 -15.2839
RightLeg  13.6062 7.69008 1.14888
RightFoot  -0.8406 -1.18803 12.7428
RightToes  5.82063e-011 0 -3.6325e-017
Spine  9.36135 -0.137142 -1.94295
Spine1  7.69132 0.489252 -5.11238
HEad  -28.3864 41.1461 -6.79939
LeftShoulder1  0.400738 2.36311 -28.9778
LeftArm  6.26838 4.52362 -43.9387
LeftForeArm  20.8138 -35.0273 -6.63799
LeftHand  -0.133611 -0.223722 2.8155
RightShoulder  -0.137951 -3.92251 24.7696
RightArm  13.1683 -2.94851 48.4899
RightForeArm  14.7618 9.88019 6.65744
RightHand  -0.0381222 0.685619 -0.812246
LeftUpLeg  3.36052 1.55855 -8.884
LeftLeg  18.9621 -11.0715 -2.72063
LeftFoot  -8.95789 -0.228495 13.5244
LeftToes  1.81573e-012 2.54609e-010 -3.45981e-011
657
root  5.54453 38.9728 29.101 163.906 58.9968 171.259
RightUpLeg  -7.14519 4.4586 -13.9639
RightLeg  8.16575 19.0808 -0.441515
RightFoot  1.24147 -1.45876 13.4981
RightToes  5.82063e-011 0 -3.6325e-017
Spine  9.10137 -0.0326501 -1.23106
Spine1  8.46318 0.624433 -4.60613
HEad  -29.7586 42.8309 -8.70964
LeftShoulder1  0.428348 2.30188 -29.5277
LeftArm  5.68121 4.00448 -43.4663
LeftForeArm  20.9492 -35.7014 -6.81228
LeftHand  -0.124846 -0.507185 2.52974
RightShoulder  -0.161843 -4.00004 24.6681
RightArm  12.6499 -2.02647 48.0919
RightForeArm  14.0071 8.75404 6.75425
RightHand  -0.0835073 0.773254 -1.65585
LeftUpLeg  4.52399 -0.337434 -8.73345
LeftLeg  19.176 -12.699 -3.07369
LeftFoot  -9.93709 -0.102091 13.1371
LeftToes  1.81573e-012 2.54609e-010 -3.45981e-011
658
root  6.35913 39.0504 29.1781 165.337 56.0101 172.807
RightUpLeg  -6.79172 -1.44905 -12.4987
RightLeg  8.87764 22.3138 -0.0236044
RightFoot  4.3519 -1.29556 9.49387
RightToes  5.82063e-011 0 -3.6325e-017
Spine  8.96479 -0.0276049 0.697458
Spine1  9.17546 0.782674 -4.06633
HEad  -29.7648 43.1658 -9.54959
LeftShoulder1  0.425282 2.30734 -29.4304
LeftArm  4.6251 4.44764 -43.3176
LeftForeArm  20.8578 -35.5758 -6.78455
LeftHand  -0.124527 -0.22317 2.62135
RightShoulder  -0.14711 -3.94577 25.1037
RightArm  12.2374 -1.12215 47.4085
RightForeArm  13.8382 7.9106 6.74003
RightHand  -0.0957366 1.62479 -1.72209
LeftUpLeg  5.93555 -4.44666 -8.30104
LeftLeg  18.5965 -11.9325 -2.84442
LeftFoot  -10.8237 0.0111401 11.892
LeftToes  1.81573e-012 2.54609e-010 -3.45981e-011
